HIERARCHY
ROOT Hips
{
  OFFSET -30.3757 95.7697 47.2536
  CHANNELS 6 Xposition Yposition Zposition Zrotation Xrotation Yrotation
  JOINT ToSpine
  {
    OFFSET -2.69724 7.43032 -0.144315
    CHANNELS 3 Zrotation Xrotation Yrotation
    JOINT Spine
    {
      OFFSET -0.0310711 10.7595 1.96963
      CHANNELS 3 Zrotation Xrotation Yrotation
      JOINT Spine1
      {
        OFFSET 13.1342 3.43533 0.764692
        CHANNELS 3 Zrotation Xrotation Yrotation
        JOINT Neck
        {
          OFFSET 29.8703 7.82586 -0.130764
          CHANNELS 3 Zrotation Xrotation Yrotation
          JOINT Head
          {
            OFFSET 9.52751 0.295786 -0.907742
            CHANNELS 3 Zrotation Xrotation Yrotation
            End Site
            {
              OFFSET 16.4037 0.713936 2.7358
            }
          }
        }
        JOINT LeftShoulder
        {
          OFFSET 27.5574 4.95586 2.47156
          CHANNELS 3 Zrotation Xrotation Yrotation
          JOINT LeftArm
          {
            OFFSET 1.20734 -0.998971 20.1238
            CHANNELS 3 Zrotation Xrotation Yrotation
            JOINT LeftForeArm
            {
              OFFSET 26.8049 -0.0536703 -0.155908
              CHANNELS 3 Zrotation Xrotation Yrotation
              JOINT LeftHand
              {
                OFFSET 26.6817 0 0.320147
                CHANNELS 3 Zrotation Xrotation Yrotation
                End Site
                {
                  OFFSET 18.6119 0 0.382219
                }
              }
            }
          }
        }
        JOINT RightShoulder
        {
          OFFSET 27.5927 4.71444 -2.65209
          CHANNELS 3 Zrotation Xrotation Yrotation
          JOINT RightArm
          {
            OFFSET 2.83739 -1.17114 -18.7564
            CHANNELS 3 Zrotation Xrotation Yrotation
            JOINT RightForeArm
            {
              OFFSET 28.839 -0.0548439 1.22491
              CHANNELS 3 Zrotation Xrotation Yrotation
              JOINT RightHand
              {
                OFFSET 26.5114 0 -0.101894
                CHANNELS 3 Zrotation Xrotation Yrotation
                End Site
                {
                  OFFSET 18.2168 0 0
                }
              }
            }
          }
        }
      }
    }
  }
  JOINT LeftUpLeg
  {
    OFFSET -4.76168 -1.9167 -10.2353
    CHANNELS 3 Zrotation Xrotation Yrotation
    JOINT LeftLeg
    {
      OFFSET 2.55951 -42.0585 -8.02213
      CHANNELS 3 Zrotation Xrotation Yrotation
      JOINT LeftFoot
      {
        OFFSET 3.16357 -42.5282 -3.95426
        CHANNELS 3 Zrotation Xrotation Yrotation
        JOINT LeftToeBase
        {
          OFFSET 0.346054 -6.02161 12.8035
          CHANNELS 3 Zrotation Xrotation Yrotation
          End Site
          {
            OFFSET 0.134235 -1.35082 5.13018
          }
        }
      }
    }
  }
  JOINT RightUpLeg
  {
    OFFSET -4.94151 -1.41743 10.6446
    CHANNELS 3 Zrotation Xrotation Yrotation
    JOINT RightLeg
    {
      OFFSET -2.56294 -42.0364 -7.94377
      CHANNELS 3 Zrotation Xrotation Yrotation
      JOINT RightFoot
      {
        OFFSET -3.0952 -42.555 -4.02241
        CHANNELS 3 Zrotation Xrotation Yrotation
        JOINT RightToeBase
        {
          OFFSET -0.0828122 -6.13587 12.8035
          CHANNELS 3 Zrotation Xrotation Yrotation
          End Site
          {
            OFFSET -0.131328 -1.35082 5.13018
          }
        }
      }
    }
  }
}
MOTION
Frames:	6
Frame Time:	0.0333333
-50.3497 90.0955 24.8921 75.2101 5.77367 4.05468 -70.1915 0 88.8779 83.1263 72.3013 0.237711 3.47424 20.5818 5.83508 -128.178 39.0633 151.819 171.32 82.608 -139.837 0.924683 -12.0699 -15.5434 -65.212 35.0487 -149.02 15.1316 -3.53424 -102.049 0.420957 0.000575125 0.35866 -1.71973 7.77927 36.3908 -107.985 -8.20996 88.2444 0.119328 -0.0224441 85.2622 0.58676 0.00033112 0.0646652 -47.2011 15.1239 99.698 -4.80151 56.4469 -4.63743 1.07395 -19.3137 -1.59889 5.88315 -14.5079 20.6183 -37.0429 -15.9378 79.7745 2.20897 41.8552 2.72799 -2.10931 -0.999215 0.478166 1.43742 -8.19684 -4.93885 
-50.269 90.0939 24.9913 75.2254 5.70364 4.10663 -70.1915 0 88.8779 83.8381 72.3426 -0.117979 3.26634 20.72 5.4724 -128.314 39.1898 152.364 165.245 82.2444 -134.269 0.921104 -12.1593 -15.4224 -65.0977 35.0764 -149.019 14.9651 -3.55753 -102.271 0.420957 0.000575125 0.35866 -1.72944 7.71575 36.7154 -107.685 -7.88395 88.3512 0.00226562 -0.012729 85.2994 0.58676 0.00033112 0.0646652 -47.275 15.3108 99.6917 -4.84452 56.4666 -4.88148 1.15287 -19.1597 -1.5842 5.87278 -14.5105 20.8582 -37.0475 -15.6858 79.9967 2.18394 41.9661 2.42702 -1.86963 -1.14807 0.458123 1.4047 -8.32202 -4.46598 
-50.2058 90.081 25.0877 75.1452 5.7531 4.20146 -70.1915 0 88.8779 84.4104 72.35 -0.74222 2.86059 20.6464 5.76514 -127.898 39.2482 152.532 163.723 82.2029 -132.419 0.915677 -12.2067 -15.5574 -65.1309 35.1216 -148.722 14.8007 -3.58386 -102.507 0.420957 0.000575125 0.35866 -1.74818 7.80746 36.6731 -107.358 -7.81948 88.3075 -0.37058 0.0175984 85.4856 0.58676 0.00033112 0.0646652 -47.1905 15.4524 99.6166 -4.85015 56.4639 -4.92364 1.14494 -19.2459 -1.59085 5.81876 -14.4563 21.1242 -36.9749 -15.5736 79.9422 2.19216 42.0963 2.37649 -1.81758 -1.42327 0.468769 1.41345 -7.94562 -4.89666 
-50.1617 90.0882 25.1694 74.9388 6.00397 4.17587 -70.1915 0 88.8779 83.5167 72.3087 -0.104163 2.897 20.5769 5.91255 -127.707 39.1684 152.02 165.834 82.4111 -134.309 0.917297 -12.2333 -15.3763 -65.0598 35.1486 -148.997 15.1247 -3.64748 -102.445 0.420957 0.000575125 0.35866 -1.72689 7.89168 36.1407 -107.435 -8.60547 88.3157 -0.0818123 -0.00449761 85.4482 0.58676 0.00033112 0.0646652 -46.9952 15.3616 99.5852 -4.7814 56.3342 -4.71543 1.18455 -19.0743 -1.57666 5.94799 -14.601 20.6965 -36.757 -15.685 80.0599 2.21829 42.3287 2.39817 -1.94014 -1.37288 0.480166 1.49699 -8.61898 -5.23418 
-50.0517 90.061 25.2677 74.9398 5.92203 4.09956 -70.1915 0 88.8779 83.2348 72.4289 0.198208 3.06896 20.6834 5.97311 -128.276 39.4225 152.366 165.12 82.4723 -133.915 0.911813 -12.3336 -15.3356 -65.1396 35.2119 -149.356 15.0447 -3.61868 -102.415 0.420957 0.000575125 0.35866 -1.72026 7.99992 35.7338 -107.652 -8.92334 88.1792 0.0688062 -0.0134639 85.6267 0.58676 0.00033112 0.0646652 -47.1227 15.472 99.7106 -4.79322 56.2974 -4.86154 1.06849 -19.2935 -1.59764 5.7284 -14.3043 20.7022 -36.6261 -15.5107 80.384 2.14916 42.5701 1.68716 -1.77279 -1.74302 0.483268 1.37559 -8.1948 -4.2644 
-49.9266 90.0783 25.3531 74.8866 6.13895 4.01162 -70.1915 0 88.8779 82.9427 72.4127 0.216711 2.97447 20.601 6.22885 -128.328 39.4876 152.351 166.037 82.5876 -134.617 0.904284 -12.3839 -15.5593 -65.4547 34.7321 -149.189 15.1043 -3.615 -102.351 0.420957 0.000575125 0.35866 -1.74135 8.00377 35.9904 -107.405 -8.53597 88.2263 0.371373 -0.0374945 85.5183 0.58676 0.00033112 0.0646652 -47.2128 15.3002 99.6431 -4.80627 56.1296 -5.26178 0.938481 -19.2653 -1.60112 5.80483 -14.4602 21.4468 -36.5681 -15.5335 80.6608 2.171 42.8344 1.67651 -1.79068 -1.99582 0.500935 1.45939 -7.85738 -5.45857 
